<svg viewbox="0 0 1024 1024" version="1.1" xmlns="http://www.w3.org/2000/svg" >
 <path d="M802.752 319.392c-5.312-5.312-11.168-9.824-17.344-13.824C794.24 291.072 799.616 274.208 799.616 256L799.616 224c0-52.928-43.072-96-96-96l-110.368 0.032c-10.176-1.728-38.688-26.88-58.656-51.776-6.272-7.84-16.192-12.352-25.92-12-10.048 0.288-19.36 5.28-25.184 13.472C466.944 101.12 442.528 125.632 435.104 128L320 128C267.072 128 224 171.072 224 224l0 32c0 17.952 5.28 34.592 13.888 48.96-28.064 18.112-46.528 50.016-46.56 87.424L191.36 858.976c0 27.584 10.688 53.568 30.176 73.056 19.488 19.52 45.408 30.272 73.12 30.272l434.88 0c0.032 0 0.16 0 0.192 0 27.584 0 53.504-10.752 72.992-30.272 19.488-19.488 30.208-45.472 30.176-73.024L832.896 392.48C832.96 364.864 822.24 338.912 802.752 319.392zM448 800l-96 0c-17.664 0-32-14.304-32-32s14.336-32 32-32l96 0c17.664 0 32 14.304 32 32S465.664 800 448 800zM512 672l-160 0c-17.664 0-32-14.304-32-32s14.336-32 32-32l160 0c17.664 0 32 14.304 32 32S529.664 672 512 672zM320 512c0-17.664 14.336-32 32-32l96 0c17.664 0 32 14.336 32 32s-14.336 32-32 32l-96 0C334.336 544 320 529.664 320 512zM704 352 320 352c-17.664 0-32-14.336-32-32s14.336-32 32-32l384 0c17.696 0 32 14.336 32 32S721.696 352 704 352z" />
 </svg>