<svg viewbox="0 0 1024 1024" version="1.1" xmlns="http://www.w3.org/2000/svg" >
 <path d="M863.68 256.32c-8.736 0-17.44-3.552-23.744-10.56-11.84-13.12-10.816-33.344 2.304-45.216l32.512-29.312c13.088-11.84 33.312-10.816 45.184 2.336 11.84 13.12 10.816 33.344-2.304 45.216L885.12 248.064C879.008 253.6 871.328 256.32 863.68 256.32zM160.352 256.32c-7.648 0-15.296-2.72-21.408-8.224L106.432 218.752c-13.12-11.84-14.144-32.064-2.336-45.216s32.032-14.176 45.216-2.336l32.512 29.312c13.12 11.84 14.144 32.064 2.336 45.216C177.824 252.736 169.12 256.32 160.352 256.32zM512 128c-17.664 0-32-14.336-32-32L480 64c0-17.664 14.336-32 32-32s32 14.336 32 32l0 32C544 113.664 529.664 128 512 128zM512 149.696c-176.448 0-320 143.552-320 320 0 111.04 68.64 187.136 71.52 190.304C293.6 692.8 320 760.64 320 805.12l0 55.68c0 70.592 57.408 128 128 128l128 0c70.592 0 128-57.408 128-128l0-55.68c0-44.544 26.368-112.352 56.48-145.12 2.912-3.2 71.52-79.296 71.52-190.304C832 293.248 688.448 149.696 512 149.696zM576 864l-128 0c-17.664 0-32-14.304-32-32s14.336-32 32-32l128 0c17.696 0 32 14.304 32 32S593.696 864 576 864zM650.112 574.336C646.752 575.456 643.328 576 640 576c-13.408 0-25.888-8.48-30.336-21.888l-15.648-46.88-59.36 59.392c-12.512 12.512-32.736 12.512-45.248 0l-59.392-59.392-15.616 46.88c-5.6 16.736-23.68 25.888-40.48 20.224-16.768-5.568-25.824-23.68-20.224-40.48l32-96c3.52-10.528 12.224-18.464 23.008-21.024 10.752-2.56 22.144 0.672 29.984 8.512L512 498.752l73.376-73.376c7.808-7.84 19.168-11.04 29.984-8.512 10.816 2.56 19.488 10.496 23.008 21.024l32 96C675.936 550.656 666.88 568.768 650.112 574.336z" />
 </svg>