<svg viewbox="0 0 1024 1024" version="1.1" xmlns="http://www.w3.org/2000/svg" >
 <path d="M864 96H400C358.4 96 320 131.2 320 176v89.6l-198.4 99.2s-3.2 0-3.2 3.2c-35.2 25.6-54.4 64-54.4 112v323.2c0 9.6 3.2 16 9.6 22.4 6.4 6.4 12.8 9.6 22.4 9.6h99.2c0-6.4-3.2-9.6-3.2-16 0-80 64-144 144-144s144 64 144 144c0 6.4 0 9.6-3.2 16H576v-16c0-80 64-144 144-144s144 64 144 144v16h67.2c19.2 0 32-12.8 32-32V192C960 140.8 918.4 96 864 96zM320 480c0 19.2-12.8 32-32 32H160c-19.2 0-32-12.8-32-32 0-64 105.6-108.8 147.2-124.8 12.8-6.4 22.4-3.2 32 3.2 9.6 6.4 12.8 16 12.8 25.6v96zM339.2 816m-112 0a112 112 0 1 0 224 0 112 112 0 1 0-224 0ZM720 816m-112 0a112 112 0 1 0 224 0 112 112 0 1 0-224 0Z" />
 </svg>