<svg viewbox="0 0 1024 1024" version="1.1" xmlns="http://www.w3.org/2000/svg" >
 <path d="M142.144 509.12l33.92 0c-1.28-7.136-3.584-13.248-7.2-20.064-3.584-5.504-11.2-5.952-11.2-5.952L127.456 483.104c3.296 6.816 5.344 13.248 7.616 20.864C136.832 509.952 142.144 509.12 142.144 509.12zM165.248 553.312 135.008 553.312c3.296 6.688 5.408 13.12 7.616 20.736 1.76 6.048 7.168 5.12 7.168 5.12l33.856 0c-1.248-7.136-3.584-13.12-7.136-20C172.928 553.696 165.248 553.312 165.248 553.312zM716.96 473.984c17.216-11.36 26.944-28.704 36.32-44.32l1.664-2.688 0-13.376-136.864 0 0-11.936L584.32 401.664l0 11.36-26.624 0 0-11.36-33.728 0 0 11.36-11.904 0 0 23.424 11.904 0 0 59.904c-0.704 44.512 1.76 70.048 17.184 86.112l1.952 2.112-1.472 2.304c-5.856 9.504-17.472 15.36-34.144 21.568l0 16.32c27.36-6.56 42.592-17.12 53.856-24.992 2.56-1.76 5.088-3.488 7.36-4.864l2.048-1.184 1.952 1.376c18.016 13.504 40 24.192 60.96 29.696L633.664 608.64c-15.008-4.928-26.656-12.448-33.024-21.568l-1.696-2.368 1.92-2.048c16.928-18.304 17.824-49.952 17.248-86.368l0-61.312 96.896 0c-9.504 14.272-17.824 23.104-31.392 31.52-1.76 1.152-3.488 2.208-5.28 3.36l0 24.544-51.776 0 0 20.864 51.776 0 0 75.072c0.352 5.76-1.024 10.304-4.096 13.632-3.296 3.488-8.448 5.248-15.264 5.248-0.672 0-1.504-0.128-2.08-0.128l-11.328 0 0 17.248 38.496 0c1.28 0.128 2.592 0.128 3.744 0.128 10.528 0 18.272-2.432 23.104-7.488 4.576-4.928 6.688-12.576 6.08-23.008l0-80.672 42.656 0 0-20.864-42.656 0L716.992 473.984zM573.472 571.136l-3.104 4.576-2.88-4.8c-10.016-16.256-9.92-38.176-9.824-65.952 0-3.2 0-6.496 0-9.632L557.664 436.48l26.624 0 0 66.208C584.448 531.744 584.48 554.816 573.472 571.136zM823.264 504.576l0-71.616L992 432.96l0-18.88-77.568 0 0-19.328-43.04 0 0 19.328-88.128 0 0 95.552c0.928 56.448-1.888 89.248-19.328 97.504l0 20.8c25.824-7.36 42.688-26.432 51.552-58.24l6.944 1.056 0 50.176 131.712 0c0.672 0 1.984 0 1.984 0 10.688 0 18.304-2.496 23.008-7.264 4.192-4.384 6.176-11.072 5.984-19.808l0-67.36-70.656 0 0-34.112 76.736 0L991.2 472.32l-76.736 0 0-26.464-38.944 0 0 80.672-53.056 0 0.224-3.744C823.008 516.992 823.136 510.752 823.264 504.576zM939.488 544.32l0 40.736c0.352 6.016-0.928 10.688-4.096 13.952-3.168 3.424-8.224 5.184-14.656 5.184-0.8 0-1.536 0-2.112 0L861.44 604.192l0-41.888c0.128-0.8 0.384-1.888 0.512-3.36 1.888-16.192 17.568-14.56 17.568-14.56L879.36 544.32 939.488 544.32zM292.16 622.304l159.488 0c1.408 0 2.688 0.128 3.968 0.128 11.776 0 20.512-2.944 25.792-8.448 5.216-5.504 7.488-13.952 6.912-25.312L488.32 411.84 292.16 411.84 292.16 622.304zM333.952 528.928l96.64 0 0-22.752-96.64 0 0-54.24c0.16-0.704 0.288-1.664 0.416-2.816 1.472-11.264 8.384-13.984 13.056-14.528l4.352 0c0.096 0 0.096 0 0.096 0l0 0 94.688 0 0 58.336 0 16.736 0 19.264 0 14.496 0 31.424c0 15.936-8 24.256-23.264 24.256l-89.344 0L333.952 528.928zM115.84 413.504c0 0 7.872-12.32 10.848-21.824L85.92 391.68C79.744 415.36 59.712 434.592 32 443.136l0 0 0 0 0 23.904c0 0 7.36 0.48 18.4-1.888l0 58.72L50.048 523.872l0 17.504 0.352 0 0 39.552C50.048 592 52.448 600.32 57.472 605.44c4.928 5.056 12.704 7.616 23.104 7.616 0.64 0 1.28 0 2.048 0l130.432 0 7.04 0 0 19.264 41.728 0 0-50.432L261.568 581.888l0-39.136 0-3.744 0-17.184 0-55.936c0 0 0.672-7.04-5.504-12.992-4.096-4-13.056-4.928-13.056-4.928L93.696 447.968c4.16-4.224 9.952-9.376 12.896-13.344l157.792 0 0-20.992L120.544 413.632 115.84 413.504zM201.28 467.744c0.8 0.224 1.984 0.48 3.744 0.672 17.696 2.24 14.816 17.824 14.816 17.824l0.256-0.192 0 9.504 0.032 0 0 54.24L220.096 549.792l0 42.304L114.656 592.096c-0.64 0-1.28 0-1.92 0-6.688 0-11.84-1.888-15.424-5.632-4.032-4.256-5.856-10.688-5.44-19.136l0-25.984 111.936 0 0-20.992L91.872 520.352l0-52.64L201.28 467.712z" />
 </svg>