<svg viewbox="0 0 1024 1024" version="1.1" xmlns="http://www.w3.org/2000/svg" >
 <path d="M944 553.568c38.752-0.096 35.84-26.272 35.84-55.456l-0.096-16.384c0-16.128-8.288-26.816-28.544-31.52l16.736-15.392c0 0-7.104-4.416-18.816-10.336 13.056 0.48 27.552 1.472 43.264 3.328 0 0 4.672-14.944 9.312-23.872-27.808-2.016-58.752-0.48-80.48 1.312 2.4-3.488 3.712-5.632 3.712-5.632L881.696 384c0 0-12.672 43.392-39.392 62.912 2.848 1.152 5.568 2.464 8 3.808-22.496 1.696-41.632 3.68-52.672 4.864l19.168-19.584c0 0-4.832-4.128-16.864-10.4 12.352 0.416 26.464 1.44 42.624 3.328 0 0 4.992-11.968 9.824-20.96-30.272-3.2-57.216-1.664-75.328 0.384 4-5.216 6.272-8.64 6.272-8.64l-44.512-13.376c0 0-12.384 39.584-39.808 58.368 11.872 5.184 20.8 13.152 20.8 13.152 13.216-5.056 25.984-15.392 36.608-25.952 6.88 4.576 15.456 10.56 22.976 16.608l-39.936 0 0 105.024 46.112 0c0.032 3.456 0.064 6.848 0 10.048l-76.736 0 0 23.2 73.696 0c-5.792 17.568-21.76 28.64-65.12 30.304l11.232 20.672c67.712-4.96 91.392-25.408 99.616-51.008l69.952 0 0 53.088L944 639.84l0-53.088 57.632 0 0-23.2L944 563.552 944 553.568 944 553.568zM901.28 430.272c7.36 4.928 16.384 11.168 24.224 17.184-1.792-0.032-3.552-0.032-5.408-0.032-12.768 0.16-25.888 0.64-38.592 1.28C888.672 443.232 895.36 436.704 901.28 430.272zM787.488 455.52c0.384 0.384 0.736 0.704 1.12 1.088-0.736 0.096-1.12 0.128-1.12 0.128L787.488 455.52 787.488 455.52zM787.488 475.168c0 0 41.856-4.256 89.088-7.104 36.736-2.208 49.728 2.176 54.048 10.144l-143.168 3.552L787.456 475.168 787.488 475.168zM898.112 563.648l-66.016 0c0.192-3.328 0.288-6.72 0.32-10.08l65.728 0L898.144 563.648 898.112 563.648zM911.04 535.68l-123.52 0 0-6.528 143.168-3.488C928.16 530.464 922.752 535.68 911.04 535.68zM787.488 509.664l0-8.352 145.248-3.552c0 2.944 0 5.76 0 8.32L787.488 509.664zM286.112 512.832c0 0 18.08-13.696 33.76-27.104-9.408-8.608-19.872-16.416-30.4-23.36 9.184-7.2 16.032-14.016 20.16-20.416 7.52-11.648 6.464-20.64 1.504-29.152-7.808-13.44-23.84-19.808-47.104-20-28.256-0.224-57.312 6.08-72.128 9.856l0-11.904L32.864 390.752l0 24 19.04 0 0 65.696c-10.368 0.96-20.352 2.08-29.6 3.392l13.12 32.48c0 0 34.464-11.712 98.72-17.824l0 16.544c-32.48 3.648-63.616 5.824-83.936 6.08L55.36 543.68c0 0 24.96-1.152 58.752-3.328-15.104 11.264-43.2 27.424-86.336 34.752 0 0 7.776 11.328 10.08 17.984 18.72 0 86.112-19.392 110.464-42.016l-11.2-12.256c4.032-0.288 8.128-0.576 12.288-0.864l0 99.84 45.984 0 0-61.248c15.328 17.472 42.272 40.512 87.424 59.392 6.816-7.456 32.64-32.576 32.64-32.576-23.04-4.704-43.68-12.8-61.504-22.72 31.392-7.2 60.384-33.28 60.384-33.28l-37.184-22.176c0 0-17.248 26.912-48.672 38.752-12.448-9.6-22.72-19.904-30.56-30.016 28.384-2.688 54.912-5.856 72.864-9.472-8.896-10.56-18.72-32.576-18.72-32.576-5.504 2.208-12.16 4.352-19.712 6.368 10.08-5.536 19.456-10.912 27.968-16.128C269.344 490.784 278.272 500.928 286.112 512.832zM134.112 475.36c-14.816 0.544-31.328 1.344-48.064 2.4l0-10.144 48.064 0L134.112 475.36 134.112 475.36zM134.112 452.096 86.048 452.096l0-11.424 48.064 0L134.112 452.096 134.112 452.096zM134.112 425.088 86.048 425.088l0-10.336 48.064 0L134.112 425.088 134.112 425.088zM194.912 476.384l17.408 26.656c-13.344 2.784-28.192 5.312-43.488 7.52l0-14.592c6.784-0.352 13.824-0.608 21.088-0.8l0-21.152c0 0-8.032 0.032-21.088 0.352l0-59.584 17.76 0 7.968 16.192c0.448-0.096 24.192-17.76 64.032-17.76 0.448 0 0.896-0.032 1.344 0 10.656 0.768 17.664 2.816 20.48 8.32 1.76 3.392 0.992 7.744-2.528 12.32-3.2 4.192-8.544 8.352-15.36 12.48-25.344-13.76-45.92-21.408-45.92-21.408l-16.64 17.984c0 0 14.656 5.376 33.44 17.888C221.216 466.016 207.872 471.264 194.912 476.384zM659.552 570.72c0.064-10.144 0.064-171.328-0.064-179.552l-46.912 0 0 202.144c-0.672 18.688-16.608 23.744-32.416 24-4 9.216-5.248 11.968-9.76 20.704 13.12 2.016 58.496 4.32 77.376-10.496C661.28 615.296 659.488 592.8 659.552 570.72zM483.424 601.856c12-11.84 18.176-24.992 21.408-38.272 3.648-15.232 11.712-76.896 11.712-76.896l-44.608 0.224c0 0-0.064 30.656-2.976 61.6-0.992 10.688-3.936 19.84-8.48 27.744-5.056-10.208-7.968-22.88-7.52-38.56 0.384-13.344 0.224-37.28-0.096-61.856 22.016-2.688 48.16-4.864 78.016-5.664L530.88 448.96c0 0-35.776 0.256-78.4 2.24-0.512-30.56-1.152-56.512-1.152-56.512l-48.352-0.288 1.28 59.68c-15.968 1.248-31.456 2.784-45.056 4.672l13.12 32.512c0 0 11.36-3.584 32.576-7.84l1.056 48.736c0 0 0.288 41.472 23.232 71.776-12.704 6.272-27.936 10.496-44.768 13.216L395.936 640c22.464-4.256 40.384-9.856 54.752-16.416 3.584 2.176 7.456 4.128 11.68 5.792 28.672 10.144 75.232 10.144 75.232 10.144l16.256-20.928C553.888 618.592 513.12 621.536 483.424 601.856zM590.88 423.488l-40.8 0 0 152.736 40.8 0L590.88 423.488 590.88 423.488zM494.816 440.704c15.52 0 28.128-14.272 28.128-27.104 0-12.896-12.608-27.104-28.128-27.104-15.648 0-28.224 14.176-28.224 27.104C466.624 426.432 479.2 440.704 494.816 440.704zM27.776 616.8c0 0 7.776 11.328 10.08 17.984 18.72 0 86.112-19.392 110.464-42.048l-20.608-22.528C127.712 570.208 97.216 604.992 27.776 616.8z" />
 </svg>