<svg viewbox="0 0 1024 1024" version="1.1" xmlns="http://www.w3.org/2000/svg" >
 <path d="M950.4 841.6l-89.6-86.4s0-3.2-3.2-3.2c0-3.2-118.4-166.4-118.4-288 0-169.6-76.8-256-163.2-288V160c0-54.4-41.6-96-96-96s-96 41.6-96 96v16c-28.8 9.6-54.4 25.6-76.8 48L214.4 137.6c-12.8-12.8-32-12.8-44.8 0s-12.8 32 0 44.8l736 704c6.4 6.4 12.8 9.6 22.4 9.6 9.6 0 16-3.2 22.4-9.6 12.8-12.8 12.8-32 0-44.8zM448 160c0-19.2 12.8-32 32-32s32 12.8 32 32h-64zM220.8 460.8c0 121.6-118.4 284.8-118.4 288-6.4 6.4-6.4 16-6.4 25.6 3.2 9.6 6.4 16 16 22.4 6.4 3.2 108.8 57.6 233.6 83.2 22.4 67.2 73.6 112 134.4 112s112-44.8 134.4-112c48-9.6 96-25.6 134.4-38.4L233.6 352c-6.4 32-12.8 67.2-12.8 108.8zM480 896c19.2 0 38.4 0 57.6-3.2-16 22.4-35.2 35.2-57.6 35.2s-41.6-12.8-57.6-35.2c19.2 3.2 38.4 3.2 57.6 3.2z" />
 </svg>