<svg viewbox="0 0 1024 1024" version="1.1" xmlns="http://www.w3.org/2000/svg" >
 <path d="M588.8 451.2h-160c-9.6 0-16 6.4-16 16s6.4 16 16 16h160c9.6 0 16-6.4 16-16s-6.4-16-16-16z" />
 <path d="M512 64C265.6 64 64 265.6 64 512s201.6 448 448 448 448-201.6 448-448S758.4 64 512 64z m224 412.8c-19.2 0-38.4 16-38.4 38.4 0 19.2 16 38.4 38.4 38.4v73.6c0 28.8-22.4 51.2-51.2 51.2H336c-28.8 0-51.2-22.4-51.2-51.2v-73.6c19.2 0 38.4-16 38.4-38.4 0-19.2-16-38.4-38.4-38.4v-73.6c0-28.8 22.4-51.2 51.2-51.2h348.8c28.8 0 51.2 22.4 51.2 51.2v73.6z" />
 <path d="M588.8 547.2h-160c-9.6 0-16 6.4-16 16s6.4 16 16 16h160c9.6 0 16-6.4 16-16s-6.4-16-16-16z" />
 </svg>