<svg viewbox="0 0 1024 1024" version="1.1" xmlns="http://www.w3.org/2000/svg" >
 <path d="M515.2 67.2c-246.4 0-448 201.6-448 448s201.6 448 448 448 448-201.6 448-448-198.4-448-448-448z m233.6 396.8c-16 16-32 28.8-48 44.8-6.4 6.4-12.8 16-22.4 16-12.8 3.2-22.4-6.4-28.8-12.8-3.2-3.2-3.2-6.4-6.4-6.4v208c0 6.4-3.2 9.6-6.4 12.8-9.6 6.4-25.6 6.4-41.6 6.4h-160c-12.8 0-22.4 0-32-3.2-3.2-3.2-6.4-6.4-9.6-12.8v-211.2c-6.4 6.4-12.8 12.8-22.4 16-6.4 3.2-16 0-22.4-3.2l-9.6-9.6c-6.4-6.4-12.8-12.8-22.4-19.2l-9.6-9.6-12.8-12.8c-3.2-6.4-9.6-9.6-12.8-16 0-3.2-3.2-6.4-3.2-12.8 3.2-9.6 9.6-16 16-22.4l12.8-12.8 67.2-64c3.2-3.2 6.4-9.6 12.8-12.8 6.4-6.4 9.6-16 22.4-16h41.6c3.2 3.2 6.4 3.2 9.6 6.4l9.6 9.6c3.2 6.4 9.6 9.6 16 12.8 6.4 3.2 16 6.4 22.4 6.4h22.4c16-3.2 25.6-6.4 35.2-16 3.2-3.2 6.4-9.6 9.6-12.8 3.2-3.2 3.2-3.2 6.4-3.2s3.2 0 6.4-3.2h12.8c9.6 0 28.8-3.2 35.2 3.2 6.4 3.2 9.6 6.4 12.8 12.8l16 16c19.2 19.2 38.4 35.2 57.6 54.4l19.2 19.2c3.2 6.4 9.6 9.6 12.8 16v3.2c3.2 16 0 22.4-6.4 28.8z" />
 </svg>