<svg viewbox="0 0 1024 1024" version="1.1" xmlns="http://www.w3.org/2000/svg" >
 <path d="M529.066667 768c-4.266667 0-10.666667-2.133333-14.933334-6.4l-68.266666-66.133333c-8.533333-8.533333-8.533333-21.333333 0-29.866667 8.533333-8.533333 21.333333-8.533333 29.866666 0l53.333334 51.2 55.466666-51.2c4.266667-4.266667 8.533333-6.4 14.933334-6.4h91.733333c19.2 0 34.133333-14.933333 34.133333-34.133333V354.133333c0-29.866667-19.2-34.133333-19.2-34.133333H349.866667c-29.866667 0-49.066667 12.8-49.066667 34.133333v270.933334c0 19.2 14.933333 34.133333 34.133333 34.133333H384c12.8 0 21.333333 8.533333 21.333333 21.333333s-8.533333 21.333333-21.333333 21.333334h-51.2c-42.666667 0-76.8-34.133333-76.8-76.8V354.133333c0-36.266667 27.733333-76.8 91.733333-76.8h358.4c21.333333 0 61.866667 23.466667 61.866667 76.8v270.933334c0 42.666667-34.133333 76.8-76.8 76.8h-83.2l-64 59.733333c-4.266667 4.266667-10.666667 6.4-14.933333 6.4zM426.666667 469.333333m-42.666667 0a42.666667 42.666667 0 1 0 85.333333 0 42.666667 42.666667 0 1 0-85.333333 0ZM597.333333 469.333333m-42.666666 0a42.666667 42.666667 0 1 0 85.333333 0 42.666667 42.666667 0 1 0-85.333333 0ZM512 960C264.533333 960 64 759.466667 64 512S264.533333 64 512 64s448 200.533333 448 448-200.533333 448-448 448z m0-853.333333C288 106.666667 106.666667 288 106.666667 512s181.333333 405.333333 405.333333 405.333333 405.333333-181.333333 405.333333-405.333333S736 106.666667 512 106.666667z" />
 </svg>