<svg viewbox="0 0 1025 1024" version="1.1" xmlns="http://www.w3.org/2000/svg" >
 <path d="M614.4 320 577.408 320 517.536 320 366.048 320 324.256 384 475.712 384 440 456.288 415.008 416 315.552 416 390.912 547.616 270.24 768 367.168 768 440.032 631.264 514.944 768 614.4 768 489.12 547.168ZM614.08 448 672.064 448 672.064 768 800.064 768 800.064 320 677.504 320ZM909.184 320 845.792 448 896.064 448 896.064 768 1024.064 768 1024.064 320ZM291.104 670.464 220.672 546.752 344.128 320 317.76 320 247.296 320 1.248 320 44.16 384 205.504 384 171.552 452.896 148.448 416 48.96 416 122.464 544.192 0 768 96.864 768 171.584 630.88 242.048 761.056Z" />
 </svg>