<svg viewbox="0 0 1024 1024" version="1.1" xmlns="http://www.w3.org/2000/svg" >
 <path d="M719.648 492.864m-80 0a2.5 2.5 0 1 0 160 0 2.5 2.5 0 1 0-160 0ZM304.352 492.864m-80 0a2.5 2.5 0 1 0 160 0 2.5 2.5 0 1 0-160 0ZM876.832 224l-510.08 0 66.912 64 443.2 0C888.256 288 896 297.76 896 308.96l0 423.328 55.328 52.928C956.704 774.176 960 761.984 960 748.864L960 308.96C960 262.624 923.328 224 876.832 224zM423.328 611.776l-57.92 144.448C362.4 763.648 355.424 768 347.712 768L148.448 768C137.824 768 128 759.936 128 748.864L128 308.96C128 298.304 137.664 288 147.328 288l8.64 0-53.44-50.08C79.744 252.864 64 279.328 64 308.96l0 439.904C64 795.232 102.528 832 148.448 832l199.296 0c33.888 0 64.128-20 77.056-51.84l57.92-144.672c3.328-8.256 9.696-14.112 17.312-17.568l-47.488-45.312C440 582.816 429.76 596 423.328 611.776zM182.112 136.864C169.344 124.672 149.088 125.12 136.864 137.888 124.672 150.656 125.12 170.912 137.888 183.136l736 704C880.096 893.056 888.032 896 896 896c8.448 0 16.832-3.328 23.136-9.888 12.224-12.768 11.744-33.024-0.992-45.248L182.112 136.864z" />
 </svg>