<svg viewbox="0 0 1024 1024" version="1.1" xmlns="http://www.w3.org/2000/svg" >
 <path d="M960.192 361.152l-104.288-246.048c-5.024-11.84-16.64-19.52-29.472-19.52L232.032 95.584c-11.68 0-22.4 6.368-28.032 16.576l-133.44 242.592c-6.24 11.328-5.056 25.248 2.976 35.328l417.952 525.376c6.08 7.648 15.296 12.096 25.056 12.096l0 0c9.76 0 18.976-4.48 25.056-12.096l414.176-521.952C963.072 384.352 964.736 371.936 960.192 361.152zM800 416l-256 0 0 416c0 17.696-14.336 32-32 32s-32-14.304-32-32L480 416 224 416c-17.664 0-32-14.336-32-32s14.336-32 32-32l203.36 0L267.328 216.416C253.824 204.992 252.16 184.8 263.584 171.328c11.424-13.504 31.616-15.168 45.12-3.744l205.728 174.272 200.64-174.016c13.376-11.552 33.536-10.176 45.152 3.2 11.552 13.344 10.112 33.568-3.232 45.152L600.384 352 800 352c17.696 0 32 14.336 32 32S817.696 416 800 416z" />
 </svg>