<svg viewbox="0 0 1024 1024" version="1.1" xmlns="http://www.w3.org/2000/svg" >
 <path d="M576 160l-128 0c-17.664 0-32-14.336-32-32s14.336-32 32-32l128 0c17.696 0 32 14.336 32 32S593.696 160 576 160zM818.976 346.272l35.648-35.648c12.512-12.512 12.512-32.736 0-45.248s-32.736-12.512-45.248 0l-32.896 32.896C707.52 232.608 614.496 192 512 192 300.256 192 128 364.256 128 576c0 211.744 172.256 384 384 384 211.744 0 384-172.256 384-384C896 489.824 867.104 410.432 818.976 346.272zM480 256c0-17.664 14.336-32 32-32s32 14.336 32 32l0 32c0 17.664-14.336 32-32 32s-32-14.336-32-32L480 256zM224 608 192 608c-17.664 0-32-14.304-32-32s14.336-32 32-32l32 0c17.664 0 32 14.304 32 32S241.664 608 224 608zM544 896c0 17.696-14.336 32-32 32s-32-14.304-32-32l0-32c0-17.696 14.336-32 32-32s32 14.304 32 32L544 896zM692 472.992l-160 128C526.08 605.728 519.04 608 512 608c-9.376 0-18.688-4.096-24.992-12-11.04-13.824-8.8-33.952 4.992-44.992l160-128c13.856-11.072 33.952-8.8 44.992 4.992C708.032 441.824 705.792 461.952 692 472.992zM832 608l-32 0c-17.696 0-32-14.304-32-32s14.304-32 32-32l32 0c17.696 0 32 14.304 32 32S849.696 608 832 608z" />
 </svg>