<svg viewbox="0 0 1024 1024" version="1.1" xmlns="http://www.w3.org/2000/svg" >
 <path d="M960.448 682.304c0.192-30.336 0.192-511.136-0.192-535.68l-139.936 0 0 603.104c-1.984 55.712-49.568 70.88-96.736 71.68-11.904 27.392-15.616 35.616-28.992 61.696 39.072 6.176 174.528 12.896 230.816-31.296C965.632 815.328 960.256 748.256 960.448 682.304zM435.04 775.168c35.712-35.328 54.272-74.528 63.936-114.112 10.816-45.504 35.008-229.408 35.008-229.408l-133.088 0.608c0 0-0.224 91.392-8.864 183.712-2.944 31.776-11.648 59.104-25.216 82.656-15.104-30.56-23.84-68.16-22.464-114.912 1.088-39.808 0.672-111.264-0.32-184.448 65.696-8.064 143.616-14.624 232.64-16.928L576.672 319.136c0 0-106.592 0.8-233.792 6.656-1.504-91.168-3.392-168.48-3.392-168.48L195.264 156.384l3.808 178.112c-47.648 3.744-93.856 8.32-134.496 14.016l39.104 96.864c0 0 33.92-10.752 97.248-23.36l3.104 145.44c0 0 0.992 123.616 69.344 214.08-37.952 18.72-83.232 31.392-133.536 39.552l34.272 67.904c67.008-12.672 120.544-29.408 163.392-48.992 10.72 6.528 22.208 12.448 34.752 17.28 85.568 30.304 224.224 30.304 224.224 30.304l48.512-62.4C644.992 825.184 523.584 833.888 435.04 775.168zM633.568 243.104l121.952 0 0 455.776-121.952 0 0-455.776ZM469.056 294.464c46.336 0 83.936-42.56 83.936-80.736 0-38.528-37.6-80.896-83.936-80.896-46.688 0-84.16 42.368-84.16 80.896C384.896 251.904 422.368 294.464 469.056 294.464z" />
 </svg>