<svg viewbox="0 0 1024 1024" version="1.1" xmlns="http://www.w3.org/2000/svg" >
 <path d="M943.328 611.776l-111.968-66.848c0 0-51.904 81.024-146.528 116.576-37.376-28.896-68.448-59.808-92-90.24 85.44-8.064 165.312-17.6 219.424-28.416-26.816-31.84-56.416-98.048-56.416-98.048-16.576 6.624-36.672 13.056-59.296 19.168 30.336-16.672 58.4-32.864 84.064-48.576 27.264 25.984 54.048 56.544 77.728 92.416 0 0 54.464-41.248 101.6-81.696-28.32-25.824-59.808-49.376-91.616-70.368 27.584-21.728 48.48-42.176 60.8-61.376 22.72-35.136 19.488-62.176 4.64-87.904-23.456-40.448-71.744-59.68-141.824-60.16-85.088-0.672-172.608 18.336-217.184 29.6l0-35.84L95.84 140.064l0 72.288 57.28 0 0 197.824c-31.2 2.976-61.344 6.304-89.152 10.272l39.456 97.76c0 0 103.84-35.296 297.248-53.728l0 49.824c-97.696 11.04-191.52 17.504-252.64 18.368l15.488 67.968c0 0 75.264-3.456 176.96-9.984-45.504 33.856-130.112 82.592-260 104.672 0 0 23.392 34.112 30.464 54.24 56.352 0 259.264-58.464 332.576-126.688l-33.696-36.8c12.16-0.864 24.512-1.76 36.96-2.688l0 300.672 138.464 0 0-184.352c46.144 52.576 127.328 121.856 263.296 178.912 20.448-22.528 98.112-98.144 98.112-98.144-69.28-14.176-131.296-38.624-184.928-68.448C856.128 690.304 943.328 611.776 943.328 611.776zM255.936 290.304l144.736 0 0 34.464L255.936 324.768 255.936 290.304zM400.672 212.32 400.672 243.52 255.936 243.52 255.936 212.32 400.672 212.32zM255.936 402.176 255.936 371.52l144.736 0 0 23.36C356.064 396.576 306.304 398.848 255.936 402.176zM505.184 456.928c20.544-1.056 41.6-1.92 63.456-2.4l0-63.776c0 0-24.224 0.128-63.456 0.992L505.184 212.32l53.504 0 23.936 48.8c1.408-0.352 72.928-53.472 192.8-53.472 1.376 0 2.752-0.096 4.064 0 32.064 2.208 53.12 8.384 61.632 24.928 5.28 10.336 2.912 23.36-7.584 37.184-9.632 12.544-25.824 25.056-46.272 37.504C710.912 265.92 649.024 242.88 649.024 242.88l-50.112 54.08c0 0 44.256 16.128 100.8 53.824-36.736 15.936-76.928 31.648-116 47.136l52.448 80.288c-40.192 8.384-84.8 15.968-130.976 22.72L505.184 456.928 505.184 456.928zM80.448 820.704c0 0 23.392 34.112 30.464 54.272 56.352 0 259.264-58.4 332.608-126.528l-62.112-67.968C381.408 680.544 289.6 785.28 80.448 820.704z" />
 </svg>