<svg viewbox="0 0 1024 1024" version="1.1" xmlns="http://www.w3.org/2000/svg" >
 <path d="M785.066667 85.333333H241.066667C192 85.333333 149.333333 128 149.333333 177.066667v672c0 49.066667 40.533333 89.6 89.6 89.6 4.266667 0 6.4 0 10.666667-2.133334L512 791.466667l262.4 145.066666c2.133333 2.133333 6.4 2.133333 10.666667 2.133334 49.066667 0 89.6-40.533333 89.6-89.6V177.066667C874.666667 128 834.133333 85.333333 785.066667 85.333333zM832 849.066667c0 23.466667-19.2 44.8-42.666667 46.933333l-268.8-147.2c0-2.133333-4.266667-2.133333-8.533333-2.133333s-6.4 0-10.666667 2.133333L236.8 896c-23.466667-2.133333-42.666667-23.466667-42.666667-46.933333V177.066667C192 151.466667 215.466667 128 241.066667 128h544C810.666667 128 832 151.466667 832 177.066667v672zM320 320h384c12.8 0 21.333333-8.533333 21.333333-21.333333s-8.533333-21.333333-21.333333-21.333334H320c-12.8 0-21.333333 8.533333-21.333333 21.333334s10.666667 21.333333 21.333333 21.333333zM320 469.333333h384c12.8 0 21.333333-8.533333 21.333333-21.333333s-8.533333-21.333333-21.333333-21.333333H320c-12.8 0-21.333333 8.533333-21.333333 21.333333s10.666667 21.333333 21.333333 21.333333zM706.133333 576h-384c-12.8 0-21.333333 8.533333-21.333333 21.333333s8.533333 21.333333 21.333333 21.333334h384c12.8 0 21.333333-8.533333 21.333334-21.333334s-10.666667-21.333333-21.333334-21.333333z" />
 </svg>