<svg viewbox="0 0 1024 1024" version="1.1" xmlns="http://www.w3.org/2000/svg" >
 <path d="M991.776 501.216c0-25.632-9.984-49.76-28.064-67.872L588.992 58.144c-36.256-36.288-99.488-36.288-135.744-0.032L317.408 193.856C280 231.264 279.968 292.16 317.344 329.6l374.656 375.136c18.144 18.144 42.24 28.128 67.936 28.128 25.632 0 49.728-9.984 67.84-28.096l35.328-35.296 26.112 26.144c12.512 12.512 12.512 32.768 1.856 43.584l-95.904 82.048c-12.448 12.544-32.736 12.512-45.248 0l-245.536-245.824-3.2-3.2c-37.44-37.408-98.336-37.504-135.744-0.096l-9.632 9.632L294.4 520.384c-12.512-12.512-32.768-12.48-45.248 0l-19.36 19.328c-0.032 0.032-0.064 0.032-0.096 0.064l-139.04 138.912c-37.408 37.408-37.44 98.304-0.032 135.776l113.12 113.184c18.688 18.688 43.296 28.064 67.872 28.064 24.576 0 49.152-9.344 67.904-28.032l139.008-138.912c0.032-0.032 0.032-0.064 0.064-0.096l19.36-19.328c6.016-6.016 9.376-14.112 9.376-22.624 0-8.48-3.36-16.64-9.344-22.624l-96.896-96.96 9.6-9.6c12.48-12.544 32.768-12.512 45.248 0.032l0-0.032 3.2 3.2 0 0.032 245.568 245.856c18.944 18.912 43.872 28.256 68.544 28.256 24.032 0 47.808-8.896 65.376-26.56l95.904-82.048c37.44-37.408 37.472-98.336 0.032-135.808l-26.112-26.112 55.232-55.168C981.76 550.976 991.776 526.88 991.776 501.216zM866.56 527.2c-6.24 6.08-14.304 9.152-22.4 9.152-8.32 0-16.608-3.2-22.848-9.6L498.72 197.536c-12.352-12.64-12.16-32.864 0.48-45.248 12.608-12.352 32.896-12.192 45.248 0.48l322.56 329.184C879.36 494.592 879.2 514.816 866.56 527.2z" />
 </svg>