<svg viewbox="0 0 1024 1024" version="1.1" xmlns="http://www.w3.org/2000/svg" >
 <path d="M928 288h-147.2l54.4-51.2c19.2-19.2 28.8-44.8 28.8-73.6 0-25.6-9.6-51.2-28.8-70.4-19.2-19.2-44.8-28.8-70.4-28.8-25.6 0-51.2 9.6-70.4 28.8l-105.6 105.6c-12.8 12.8-12.8 32 0 44.8 12.8 12.8 32 12.8 44.8 0l105.6-105.6c6.4-6.4 16-9.6 25.6-9.6 9.6 0 19.2 3.2 25.6 9.6 6.4 9.6 9.6 16 9.6 25.6s-3.2 19.2-9.6 25.6L691.2 288h-166.4l-195.2-195.2C310.4 73.6 284.8 64 259.2 64c-25.6 0-51.2 9.6-70.4 28.8S160 137.6 160 163.2c0 28.8 9.6 54.4 28.8 73.6L243.2 288H96c-19.2 0-32 12.8-32 32v163.2c0 19.2 12.8 32 32 32v313.6C96 883.2 137.6 928 188.8 928h646.4c51.2 0 96-44.8 96-102.4V512c16 0 32-16 32-32v-160c-3.2-19.2-16-32-35.2-32zM233.6 188.8c-6.4-6.4-9.6-16-9.6-25.6 0-9.6 3.2-19.2 9.6-25.6s16-9.6 25.6-9.6c9.6 0 19.2 3.2 25.6 9.6L435.2 288h-102.4L233.6 188.8z m633.6 326.4H544V832c0 19.2-12.8 32-32 32s-32-12.8-32-32v-316.8H163.2c-19.2 0-32-12.8-32-32s12.8-32 32-32H480V384c0-19.2 12.8-32 32-32s32 12.8 32 32v67.2h323.2c19.2 0 32 12.8 32 32s-12.8 32-32 32z" />
 </svg>