<svg viewbox="0 0 1024 1024" version="1.1" xmlns="http://www.w3.org/2000/svg" >
 <path d="M912.192 800 577.6 800l0-191.744 190.56 0c26.464 0 47.968-21.536 47.968-48 0-24.64-18.72-44.192-42.656-46.944-1.536-0.64-3.136-1.152-5.312-1.44L577.6 511.872l0-141.888c0-26.912-21.856-48.736-48.736-48.736-24.448 0-43.808 18.208-47.36 41.632-0.288 1.696-1.408 3.168-1.408 4.992l0 2.112L480.096 800l-94.496 0 0-285.952c0-0.352-0.192-0.64-0.192-0.928 0-0.416 0.192-0.672 0.192-0.96 0-26.368-21.408-47.68-47.744-47.68L197.152 464.48l240.16-240.672 183.008 0 195.808 192.032c53.824 54.528 139.552-18.752 93.664-66.848l-228.832-211.936C667.584 128 643.136 128 643.136 128l-188.672 0-33.28 0c-1.152 0-17.632 0-33.12 11.328l-270.08 252.768c-22.016 16.992-20.352 30.432-20.352 30.432l-1.664 89.344C95.936 511.936 96 512 96 512c0 0.032-0.064 0.064-0.064 0.16 0 26.304 21.376 47.712 47.744 47.712l144.096 0L288 559.904 288 800 144 800c-26.528 0-48.064 21.504-48.064 47.968C95.936 874.496 117.472 896 144 896l768.192 0c26.464 0 48-21.504 48-48.032C960.192 821.504 938.656 800 912.192 800" />
 </svg>