<svg viewbox="0 0 1024 1024" version="1.1" xmlns="http://www.w3.org/2000/svg" >
 <path d="M618.464 699.36l-14.272 69.76 191.232 0c49.952-1.056 58.272-21.568 73.728-72.928l59.008-279.488L469.856 416.704 392 826.112c-7.04 46.048 13.696 69.12 62.016 69.12l382.72 0 89.984-62.112L566.112 833.12c-27.2 5.152-36.192-10.88-27.136-41.568l61.632-311.488 174.688 0-38.944 187.328c-9.568 26.432-18.88 30.56-48.32 32L618.464 699.392zM387.712 482.176l34.208-7.648 22.176-101.312-34.144 7.648 13.6-98.112 31.68 0 10.56-73.728-31.712 0 10.528-49.056L286.464 159.968l-10.56 49.056L180.96 209.024 170.368 282.752l94.976 0-21.12 147.392-99.744 27.488-22.112 101.312 99.68-26.848-32.48 259.424c-0.288 30.688-12.128 43.52-35.52 38.368L88.096 829.888l-55.968 65.312 237.28 0c45.376 5.056 69.632-16.672 72.544-65.312L387.712 482.176zM575.232 159.968l-95.68 224.576 126.528 0 79.488-150.912 60.256 0 36.416 150.912 143.52 0-53.408-224.576L575.232 159.968z" />
 </svg>