<svg viewbox="0 0 1024 1024" version="1.1" xmlns="http://www.w3.org/2000/svg" >
 <path d="M585.6 480h-185.6c-9.6 0-16 6.4-16 16s6.4 16 16 16h185.6c9.6 0 16-6.4 16-16s-6.4-16-16-16z" />
 <path d="M512 64C265.6 64 64 262.4 64 512s201.6 448 448 448 448-201.6 448-448S758.4 64 512 64z m192 640c0 19.2-12.8 32-32 32H352c-19.2 0-32-12.8-32-32V352c0-19.2 12.8-32 32-32h243.2c9.6 0 19.2 3.2 25.6 12.8l76.8 99.2c3.2 6.4 6.4 12.8 6.4 19.2V704z" />
 <path d="M585.6 576h-185.6c-9.6 0-16 6.4-16 16s6.4 16 16 16h185.6c9.6 0 16-6.4 16-16s-6.4-16-16-16z" />
 </svg>