<svg viewbox="0 0 1024 1024" version="1.1" xmlns="http://www.w3.org/2000/svg" >
 <path d="M512 67.2c-246.4 0-448 201.6-448 448s201.6 448 448 448 448-201.6 448-448c0-249.6-201.6-448-448-448z m115.2 633.6c-3.2 3.2-6.4 6.4-12.8 6.4H304c-3.2 0-9.6 0-9.6-6.4-3.2-3.2-3.2-6.4-3.2-12.8 12.8-60.8 51.2-105.6 105.6-128-38.4-22.4-64-64-64-112 0-70.4 57.6-128 128-128s128 57.6 128 128c0 48-25.6 89.6-64 112 54.4 22.4 96 67.2 108.8 128 0 6.4-3.2 9.6-6.4 12.8z m28.8-134.4c-9.6 0-16-6.4-16-16s6.4-16 16-16c41.6-3.2 70.4-35.2 70.4-76.8 0-38.4-32-73.6-70.4-76.8-9.6 0-16-9.6-16-16 0-9.6 9.6-16 16-16 54.4 3.2 99.2 51.2 99.2 108.8 3.2 57.6-41.6 105.6-99.2 108.8z m108.8 102.4h-3.2c-6.4 0-12.8-6.4-16-12.8-3.2-16-16-35.2-28.8-41.6-6.4-3.2-9.6-12.8-6.4-22.4 3.2-6.4 16-9.6 22.4-6.4 22.4 12.8 38.4 41.6 44.8 64 0 9.6-3.2 19.2-12.8 19.2z" />
 </svg>