<svg viewbox="0 0 1024 1024" version="1.1" xmlns="http://www.w3.org/2000/svg" >
 <path d="M512 67.2C265.6 67.2 67.2 265.6 67.2 512S268.8 956.8 512 956.8c246.4 0 444.8-201.6 444.8-444.8 0-246.4-198.4-444.8-444.8-444.8z m140.8 646.4h-304c-22.4 0-41.6-19.2-41.6-41.6v-89.6c0-3.2 0-6.4 3.2-6.4 6.4 3.2 9.6 9.6 16 12.8 12.8 6.4 25.6 9.6 41.6 9.6 25.6 0 51.2-9.6 67.2-28.8h3.2c16 19.2 41.6 32 67.2 32s51.2-12.8 67.2-32c16 19.2 41.6 32 67.2 32 16 0 32-3.2 41.6-9.6 3.2-3.2 9.6-6.4 12.8-9.6v92.8c0 19.2-19.2 38.4-41.6 38.4z m28.8-169.6c-12.8 6.4-25.6 9.6-41.6 9.6-25.6 0-51.2-12.8-67.2-32-16 19.2-41.6 32-67.2 32s-51.2-12.8-67.2-32c-16 19.2-41.6 28.8-67.2 28.8-16 0-28.8-3.2-41.6-9.6-28.8-16-48-44.8-48-76.8 0-9.6 0-19.2 3.2-28.8v-3.2l41.6-96c6.4-19.2 25.6-32 44.8-32h265.6c22.4 0 41.6 12.8 48 32l38.4 96v3.2c3.2 9.6 3.2 19.2 3.2 28.8 0 35.2-16 64-44.8 80z" />
 </svg>