<svg viewbox="0 0 1024 1024" version="1.1" xmlns="http://www.w3.org/2000/svg" >
 <path d="M793.376 635.136c114.656-0.256 106.176-77.76 106.176-164.128l-0.416-48.448c0-47.744-24.544-79.328-84.384-93.248l49.536-45.696c0 0-20.864-13.088-55.456-30.496 38.656 1.184 81.472 4.256 127.904 9.888 0 0 13.856-44.352 27.552-70.752-82.304-6.112-173.824-1.44-238.272 3.808 7.168-10.24 11.168-16.608 11.168-16.608l-128.192-46.08c0 0-37.504 128.512-116.576 186.08 8.416 3.424 16.32 7.392 23.648 11.296-66.656 4.992-123.232 10.912-155.808 14.528l56.672-58.016c0 0-14.304-12.288-49.92-30.848 36.576 1.216 78.304 4.16 126.144 9.92 0 0 14.816-35.488 29.024-62.08-89.632-9.44-169.312-4.896-223.008 1.088 11.776-15.36 18.656-25.44 18.656-25.44L186.144 140.32c0 0-36.672 117.216-117.856 172.736 35.168 15.36 61.632 39.04 61.632 39.04 39.04-15.136 76.864-45.632 108.256-76.8 20.288 13.472 45.696 31.2 67.968 48.992L187.936 324.288l0 310.848 95.776 0 40.768 0c0.096 10.304 0.16 20.256 0 29.824L97.344 664.96l0 68.736 217.984 0c-17.024 51.808-64.288 84.64-192.544 89.44l33.248 61.28c200.416-14.592 270.432-75.104 294.624-150.752l207.072 0 0 156.96 135.744 0 0-156.96 170.56 0 0-68.736-170.56 0 0-29.792L793.376 635.136zM385.952 582.272l-19.008 0-36.736 0 0-19.296 423.68-10.368c-7.328 14.144-23.328 29.696-57.92 29.696L385.952 582.272 385.952 582.272zM753.984 412.256l-423.776 10.496 0-19.68c0 0 123.872-12.48 263.808-20.992C702.624 375.584 741.056 388.672 753.984 412.256zM330.208 480.544l429.888-10.496c0 8.672 0.032 16.992 0.064 24.672L330.208 505.28 330.208 480.544zM667.04 270.336c21.952 14.656 48.48 32.96 71.712 50.976-5.248-0.128-10.496-0.256-16.096-0.192-37.856 0.448-76.416 1.824-114.144 3.808C629.696 308.576 649.6 289.376 667.04 270.336zM333.6 348.32c-2.144 0.288-3.392 0.448-3.392 0.448l0-3.616C331.424 346.176 332.512 347.232 333.6 348.32zM462.24 664.96c0.576-9.92 0.864-19.776 0.928-29.792l194.528 0 0 29.792L462.24 664.96z" />
 </svg>