<svg viewbox="0 0 1024 1024" version="1.1" xmlns="http://www.w3.org/2000/svg" >
 <path d="M236.8 810.666667m-64 0a64 64 0 1 0 128 0 64 64 0 1 0-128 0ZM258.133333 130.133333c-21.333333 0-44.8 2.133333-68.266666 4.266667-10.666667 0-19.2 10.666667-19.2 21.333333 2.133333 10.666667 10.666667 21.333333 23.466666 19.2 21.333333-2.133333 42.666667-4.266667 64-4.266666 341.333333 0 618.666667 277.333333 618.666667 618.666666 0 27.733333 0 46.933333-2.133333 61.866667 0 10.666667 8.533333 21.333333 19.2 23.466667h2.133333c10.666667 0 19.2-8.533333 21.333333-19.2 2.133333-14.933333 2.133333-36.266667 2.133334-66.133334 0-362.666667-296.533333-659.2-661.333334-659.2zM258.133333 424.533333c-23.466667 0-46.933333 2.133333-68.266666 6.4-10.666667 2.133333-19.2 12.8-17.066667 25.6s12.8 19.2 25.6 17.066667c19.2-4.266667 40.533333-6.4 61.866667-6.4 181.333333 0 330.666667 149.333333 330.666666 330.666667 0 19.2-2.133333 34.133333-6.4 53.333333-2.133333 10.666667 6.4 23.466667 17.066667 25.6h4.266667c10.666667 0 19.2-6.4 21.333333-17.066667 4.266667-21.333333 6.4-38.4 6.4-61.866666-2.133333-206.933333-168.533333-373.333333-375.466667-373.333334z" />
 </svg>