<svg viewbox="0 0 1024 1024" version="1.1" xmlns="http://www.w3.org/2000/svg" >
 <path d="M352 178.816 352 177.312c0 0 66.56 44.384 67.584 44.704 0.512 0.192 2.08 0.32 2.656 0.32 1.248 0 2.848-0.544 3.776-1.216 0.832-0.672 27.456-40.8 27.456-40.8 0.256-0.64 0.544-1.312 0.544-2.048 0-1.248-0.416-2.368-1.184-3.328l-122.208-101.312C310.688 57.056 294.368 60.448 294.368 86.368L294.304 123.648 352 178.816zM416 505.696l0 121.984c0 0 2.464 12.32-13.088 12.32L352 640l0-195.488-64-61.216L288 640 247.392 640C231.872 640 224 627.68 224 627.68l0-252.256C224 375.424 231.872 352 247.392 352l7.904 0L198.048 297.248c-28.128 18.336-28.576 58.112-28.576 58.112l0.448 284.672c0 0-0.224 63.968 62.016 63.968l62.176 0 0.256 242.72c0 25.952 16.352 34.272 36.288 17.76l120.96-99.968 0.672-0.352c0.96-1.184 1.696-2.528 1.696-4.224 0-0.864-0.192-1.568-0.448-2.272 0 0-24.416-40.736-25.408-41.568-1.12-0.896-2.464-1.504-4-1.504-0.768 0-1.568 0.192-2.272 0.48l-4.512 1.664L352 861.376 352 704l66.464 0C480.672 704 480 643.36 480 643.36l0-76.448L416 505.696zM496.192 288 608 288l0 140.256 64 56.672L672 288l181.728 0C869.28 288 864 258.368 864 258.368L864 227.296C864 227.296 869.28 224 853.76 224L496.192 224C480.672 224 480 227.296 480 227.296l0 31.104C480 258.368 480.672 288 496.192 288zM672 750.56l-64-56.672 0 197.376c0 0 4.768 4.736 20.352 4.736l31.04 0C674.944 896 672 887.968 672 887.968L672 750.56zM824.512 630.784l68.384-59.136c14.08-12.576 16.032-32.672 1.504-44.672l-95.456-75.36C784.416 439.52 768 445.12 768 463.968l0 112.736L824.512 630.784zM928 896c-7.968 0-15.904-2.944-22.112-8.864l-736-704C157.12 170.912 156.672 150.656 168.864 137.888 181.088 125.12 201.344 124.672 214.112 136.864l736 704c12.736 12.224 13.216 32.48 0.992 45.248C944.832 892.672 936.448 896 928 896z" />
 </svg>