<svg viewbox="0 0 1024 1024" version="1.1" xmlns="http://www.w3.org/2000/svg" >
 <path d="M913.632 800.896l-240.704 0 0-150.752 51.776 0c31.52 0 45.28-32.16 45.28-32.16l162.4-269.92c14.176-23.52 6.56-54.048-16.864-68.192-23.488-14.112-54.016-6.528-68.192 16.992l-154.464 256.672-19.936 0L672.928 176.032 672.928 175.36c-0.064-0.192-0.192-0.192-0.256-0.384C672.096 149.024 651.008 128 624.832 128c-25.952 0-46.72 20.672-47.648 46.336-0.032 0.48-0.384 0.576-0.384 1.024l0 0.672 0 623.872-96.096 0L480.704 176.032 480.704 175.36c-0.032-0.288-0.224-0.384-0.288-0.576C479.776 148.832 458.784 128 432.672 128c-25.952 0-46.72 20.672-47.648 46.336C384.96 174.72 384.672 174.912 384.672 175.36l0 0.672 0 377.536-20 0L210.208 296.896c-14.144-23.52-44.672-31.136-68.16-16.992s-31.072 44.672-16.896 68.192l162.432 269.92c0 0 13.728 32.16 45.248 32.16l51.808 0 0 150.752L143.776 800.928c-26.208 0-47.52 21.28-47.52 47.552C96.256 874.688 117.568 896 143.776 896l769.856 0c26.24 0 47.52-21.312 47.52-47.52C961.152 822.176 939.872 800.896 913.632 800.896" />
 </svg>