<svg viewbox="0 0 1024 1024" version="1.1" xmlns="http://www.w3.org/2000/svg" >
 <path d="M512 64C264.96 64 64 264.96 64 512s200.96 448 448 448 448-200.96 448-448S759.04 64 512 64zM657.12 704 704 704c17.696 0 32 14.304 32 32s-14.304 32-32 32l-64 0c0 0-0.032 0-0.064 0-3.776-0.032-7.488-0.896-11.072-2.24-0.704-0.256-1.44-0.48-2.112-0.8-3.232-1.44-6.176-3.392-8.8-5.952-0.544-0.512-0.896-1.056-1.408-1.6-1.056-1.184-2.24-2.272-3.168-3.648L494.912 576 416 576l0 128 32 0c17.664 0 32 14.304 32 32s-14.336 32-32 32l-128 0c-17.664 0-32-14.304-32-32s14.336-32 32-32l32 0 0-288c0-17.664 14.336-32 32-32s32 14.336 32 32l0 96 160 0c52.928 0 96-43.072 96-96s-43.072-96-96-96l-256 0c-17.664 0-32-14.336-32-32s14.336-32 32-32l256 0c88.224 0 160 71.776 160 160s-71.776 160-160 160l-4.192 0L657.12 704z" />
 </svg>