<svg viewbox="0 0 1024 1024" version="1.1" xmlns="http://www.w3.org/2000/svg" >
 <path d="M704 374.4V198.4C704 128 675.2 128 643.2 128c-9.6 0-112 83.2-144 112l-112 89.6H179.2c-64 0-115.2 51.2-115.2 112v144c0 60.8 51.2 112 115.2 112h19.2v176c0 32 25.6 57.6 57.6 57.6s57.6-25.6 57.6-57.6v-176h73.6l112 92.8c41.6 38.4 134.4 108.8 144 108.8 28.8 0 60.8 0 60.8-70.4v-195.2c38.4-28.8 64-73.6 64-128 0-54.4-25.6-99.2-64-131.2zM819.2 262.4c-12.8-9.6-35.2-9.6-44.8 6.4-9.6 12.8-9.6 35.2 6.4 44.8 76.8 60.8 115.2 124.8 115.2 198.4 0 73.6-38.4 140.8-115.2 198.4-12.8 9.6-16 32-6.4 44.8 6.4 9.6 16 12.8 25.6 12.8 6.4 0 12.8-3.2 19.2-6.4 92.8-70.4 140.8-156.8 140.8-249.6 0-92.8-48-179.2-140.8-249.6z" />
 </svg>