<svg viewbox="0 0 1024 1024" version="1.1" xmlns="http://www.w3.org/2000/svg" >
 <path d="M896 170.666667H128c-36.266667 0-64 27.733333-64 64v554.666666c0 36.266667 27.733333 64 64 64h768c36.266667 0 64-27.733333 64-64V234.666667c0-34.133333-27.733333-64-64-64z m21.333333 618.666666c0 12.8-8.533333 21.333333-21.333333 21.333334H128c-12.8 0-21.333333-8.533333-21.333333-21.333334V234.666667c0-12.8 8.533333-21.333333 21.333333-21.333334h768c12.8 0 21.333333 8.533333 21.333333 21.333334v554.666666zM192 531.2h256c12.8 0 21.333333-8.533333 21.333333-21.333333V298.666667c0-12.8-8.533333-21.333333-21.333333-21.333334H192c-12.8 0-21.333333 8.533333-21.333333 21.333334v211.2c0 12.8 8.533333 21.333333 21.333333 21.333333z m21.333333-211.2h213.333334v168.533333H213.333333V320zM832 296.533333H554.666667c-12.8 0-21.333333 8.533333-21.333334 21.333334s8.533333 21.333333 21.333334 21.333333h277.333333c12.8 0 21.333333-8.533333 21.333333-21.333333s-8.533333-21.333333-21.333333-21.333334zM684.8 467.2c12.8 0 21.333333-8.533333 21.333333-21.333333s-8.533333-21.333333-21.333333-21.333334h-128c-12.8 0-21.333333 8.533333-21.333333 21.333334s8.533333 21.333333 21.333333 21.333333h128zM832 682.666667H192c-12.8 0-21.333333 8.533333-21.333333 21.333333s8.533333 21.333333 21.333333 21.333333h640c12.8 0 21.333333-8.533333 21.333333-21.333333s-8.533333-21.333333-21.333333-21.333333z" />
 </svg>