<svg viewbox="0 0 1024 1024" version="1.1" xmlns="http://www.w3.org/2000/svg" >
 <path d="M618.666667 256h-211.2c-12.8 0-21.333333 8.533333-21.333334 21.333333s8.533333 21.333333 21.333334 21.333334H618.666667c12.8 0 21.333333-8.533333 21.333333-21.333334s-10.666667-21.333333-21.333333-21.333333zM618.666667 384h-211.2c-12.8 0-21.333333 8.533333-21.333334 21.333333s8.533333 21.333333 21.333334 21.333334H618.666667c12.8 0 21.333333-8.533333 21.333333-21.333334s-10.666667-21.333333-21.333333-21.333333zM258.133333 640h512c12.8 0 21.333333-8.533333 21.333334-21.333333s-8.533333-21.333333-21.333334-21.333334h-42.666666V128c0-12.8-8.533333-21.333333-21.333334-21.333333h-384c-12.8 0-21.333333 8.533333-21.333333 21.333333v469.333333h-42.666667c-12.8 0-21.333333 8.533333-21.333333 21.333334s8.533333 21.333333 21.333333 21.333333z m85.333334-490.666667h341.333333v448h-341.333333V149.333333zM885.333333 305.066667c0-19.2 0-70.4-44.8-70.4h-27.733333c-12.8 0-21.333333 8.533333-21.333333 21.333333s8.533333 21.333333 21.333333 21.333333h25.6c0 2.133333 4.266667 6.4 4.266667 29.866667L868.266667 768H155.733333l27.733334-462.933333c0-19.2 8.533333-27.733333 10.666666-27.733334h21.333334c12.8 0 21.333333-8.533333 21.333333-21.333333s-8.533333-21.333333-21.333333-21.333333h-21.333334c-29.866667 0-53.333333 29.866667-53.333333 68.266666L108.8 844.8c0 40.533333 27.733333 72.533333 59.733333 72.533333h695.466667c32 0 51.2-27.733333 51.2-74.666666l-29.866667-537.6z m-21.333333 569.6H168.533333c-6.4 0-17.066667-12.8-17.066666-29.866667l2.133333-34.133333h718.933333l2.133334 34.133333c0 19.2-6.4 29.866667-10.666667 29.866667z" />
 </svg>