<svg viewbox="0 0 1024 1024" version="1.1" xmlns="http://www.w3.org/2000/svg" >
 <path d="M512 956.8c-246.4 0-448-201.6-448-448s201.6-448 448-448 448 201.6 448 448-201.6 448-448 448z m0-832c-211.2 0-384 172.8-384 384s172.8 384 384 384 384-172.8 384-384-172.8-384-384-384z" />
 <path d="M736 473.6v-73.6c0-28.8-22.4-51.2-51.2-51.2H336c-28.8 0-51.2 22.4-51.2 51.2v73.6c19.2 0 38.4 16 38.4 38.4s-16 35.2-35.2 35.2v73.6c0 28.8 22.4 51.2 51.2 51.2h348.8c28.8 0 51.2-22.4 51.2-51.2v-73.6c-19.2 0-38.4-16-38.4-38.4s12.8-35.2 35.2-35.2zM588.8 576h-160c-9.6 0-16-6.4-16-16s6.4-16 16-16h160c9.6 0 16 6.4 16 16s-6.4 16-16 16z m0-96h-160c-9.6 0-16-6.4-16-16s6.4-16 16-16h160c9.6 0 16 6.4 16 16s-6.4 16-16 16z" />
 </svg>