<svg viewbox="0 0 1024 1024" version="1.1" xmlns="http://www.w3.org/2000/svg" >
 <path d="M180.448 445.984l-56.896-11.488-4.608 26.432 56.928 11.488L180.448 445.984zM124.736 486.176 92 616l47.552 0 33.888-129.824L124.736 486.176 124.736 486.176zM281.664 521.824l-10.976 63.168c-0.128 9.216-2.4 14.656-10.432 13.12L252.992 598.112l16.352-90.08 47.584 0 3.776-21.856L277.856 486.176 273.12 486.176l0.576-3.136 1.44-8.352 47.584 0 3.776-21.856L235.904 452.832l5.376-11.456L197.088 441.376 181.12 474.72l47.584 0-2.016 11.456L179.104 486.176l-3.776 21.856 47.584 0-17.024 90.08L191.392 598.112l14.336-76.288L172.896 521.824 156.544 616l125.728 0c11.328 0 17.44-4.576 18.24-13.792l14.016-80.384L281.664 521.824 281.664 521.824zM242.144 410.656l7.2-14.72L205.888 395.936l-18.112 36.768 155.872 0L309.44 616l15.872 0c19.36 1.568 29.888-6.944 31.584-25.28l30.208-180.064L242.144 410.656 242.144 410.656zM186.848 409.216l-56.896-11.456-4.608 26.432 57.12 10.304L186.848 409.216zM535.2 460.256l28-42.272 5.056 0 20.448 42.272 47.104 0-24-64.32-83.968 0-36.096 64.32L535.2 460.256zM484.8 459.776l-11.744 2.304 4.672-29.376 10.88 0 3.648-22.016-10.88 0 3.648-14.72-54.432 0-3.584 14.72-33.952 0-3.648 22.016 33.984 0L416.128 476.8l-32.896 8.224-6.272 30.336 31.52-8-11.136 77.632c-0.128 9.216-4.16 13.056-12.224 11.488l-18.624 0-4.704 19.488 62.976 0c15.584 1.568 23.904-4.96 24.928-19.488l15.712-104.096 11.744-3.68L484.8 459.776zM847.392 409.216l14.88-25.472-18.752 25.472-18.016 0 4.256-11.456-52.128 0-7.168 34.944 56.48-0.896-81.888 111.2 50.752 0-36.256 113.92 87.008-165.344-47.104 0 34.88-59.872 38.72-0.64c0 0-16.928 110.272-25.504 152.032-1.056 5.312-26.24 5.472-26.24 5.472l-12.096 27.904 59.104 0c15.584 1.568 22.112-5.44 23.2-19.968l32.544-187.264L847.392 409.216 847.392 409.216zM665.472 397.728l-26.912 158.528 8.16-0.64 5.92 0.448-12.032 40.448-112.512 0c-9.344 1.568-12.448-2.272-9.344-11.488l16.384-92.128 50.464 0-8.544 47.328c0.672 9.216-3.776 13.024-13.28 11.488l-20.416 0-3.776 21.792 58.88 0c15.616 1.536 24.032-5.728 25.376-21.792l14.272-80.672-147.936 0-21.888 124.32c-2.432 13.728 4.704 20.672 21.28 20.672l145.248 0 3.168 0 33.088 0 9.984-47.104 24.16-92.096-14.048 0 7.968-57.28 21.504 0-26.944 155.104 16.928 0c15.616 1.568 24.064-5.728 25.344-21.824l26.976-155.072L665.472 397.76 665.472 397.728zM685.856 580.416l1.76 35.584 37.344 0-1.728-35.584L685.856 580.416z" />
 </svg>