<svg viewbox="0 0 1024 1024" version="1.1" xmlns="http://www.w3.org/2000/svg" >
 <path d="M305.066667 283.733333c-8.533333-8.533333-21.333333-6.4-29.866667 2.133334C221.866667 345.6 192 422.4 192 503.466667c0 78.933333 29.866667 155.733333 81.066667 215.466666 4.266667 4.266667 10.666667 6.4 14.933333 6.4 4.266667 0 10.666667-2.133333 14.933333-6.4 8.533333-8.533333 10.666667-21.333333 2.133334-29.866666-44.8-49.066667-70.4-117.333333-70.4-185.6 0-70.4 25.6-136.533333 72.533333-189.866667 8.533333-8.533333 6.4-21.333333-2.133333-29.866667zM748.8 285.866667c-8.533333-8.533333-21.333333-8.533333-29.866667-2.133334-8.533333 8.533333-8.533333 21.333333-2.133333 29.866667 46.933333 51.2 72.533333 119.466667 72.533333 189.866667 0 70.4-25.6 136.533333-70.4 187.733333-8.533333 8.533333-6.4 21.333333 2.133334 29.866667 4.266667 4.266667 8.533333 6.4 14.933333 6.4 6.4 0 12.8-2.133333 14.933333-6.4C804.266667 661.333333 832 584.533333 832 505.6c0-83.2-29.866667-160-83.2-219.733333z" />
 <path d="M802.133333 853.333333c-6.4 0-10.666667-2.133333-14.933333-6.4-8.533333-8.533333-8.533333-21.333333 0-29.866666 17.066667-14.933333 32-34.133333 44.8-51.2 55.466667-74.666667 85.333333-162.133333 85.333333-253.866667 0-100.266667-34.133333-196.266667-98.133333-273.066667-14.933333-19.2-32-34.133333-49.066667-51.2-8.533333-8.533333-10.666667-21.333333-2.133333-29.866666 8.533333-8.533333 21.333333-10.666667 29.866667-2.133334 19.2 17.066667 38.4 36.266667 55.466666 55.466667 68.266667 83.2 106.666667 189.866667 106.666667 300.8 0 102.4-32 198.4-91.733333 279.466667-14.933333 21.333333-32 40.533333-51.2 57.6-4.266667 2.133333-8.533333 4.266667-14.933334 4.266666z m-565.333333 0c-4.266667 0-10.666667-2.133333-12.8-4.266666-14.933333-12.8-29.866667-27.733333-44.8-44.8-74.666667-83.2-115.2-192-115.2-302.933334 0-113.066667 40.533333-219.733333 115.2-305.066666 12.8-14.933333 27.733333-29.866667 42.666667-42.666667 8.533333-8.533333 23.466667-6.4 29.866666 2.133333 8.533333 8.533333 6.4 23.466667-2.133333 29.866667-12.8 12.8-27.733333 25.6-38.4 38.4-66.133333 76.8-104.533333 174.933333-104.533333 277.333333 0 100.266667 36.266667 198.4 104.533333 273.066667 12.8 14.933333 25.6 27.733333 40.533333 40.533333 8.533333 8.533333 10.666667 21.333333 2.133334 29.866667-4.266667 4.266667-10.666667 8.533333-17.066667 8.533333zM507.733333 661.333333c-25.6 0-49.066667-10.666667-66.133333-32L341.333333 509.866667c-32-38.4-27.733333-93.866667 10.666667-125.866667 19.2-14.933333 40.533333-23.466667 66.133333-21.333333 23.466667 2.133333 44.8 12.8 59.733334 32l34.133333 40.533333 34.133333-40.533333c14.933333-19.2 36.266667-29.866667 59.733334-32 23.466667-2.133333 46.933333 4.266667 66.133333 21.333333 19.2 14.933333 29.866667 36.266667 32 59.733333 2.133333 23.466667-4.266667 46.933333-21.333333 66.133334l-42.666667 51.2c-8.533333 8.533333-21.333333 10.666667-29.866667 2.133333-8.533333-8.533333-10.666667-21.333333-2.133333-29.866667l42.666667-51.2c8.533333-8.533333 12.8-21.333333 10.666666-34.133333-2.133333-12.8-6.4-23.466667-17.066666-32-8.533333-8.533333-21.333333-12.8-34.133334-10.666667-12.8 2.133333-23.466667 6.4-32 17.066667L512 501.333333l-66.133333-78.933333c-8.533333-8.533333-19.2-14.933333-32-17.066667-12.8-2.133333-23.466667 2.133333-34.133334 10.666667-19.2 17.066667-21.333333 46.933333-6.4 66.133333l100.266667 119.466667c8.533333 10.666667 23.466667 17.066667 38.4 17.066667 17.066667 0 29.866667-6.4 38.4-17.066667 8.533333-8.533333 21.333333-10.666667 29.866667-2.133333 8.533333 8.533333 10.666667 21.333333 2.133333 29.866666-17.066667 21.333333-44.8 32-72.533333 32h-2.133334z" />
 </svg>