<svg viewbox="0 0 1024 1024" version="1.1" xmlns="http://www.w3.org/2000/svg" >
 <path d="M512 228.266667c-196.266667 0-354.133333 160-354.133333 354.133333V725.333333C352 725.333333 512 567.466667 512 371.2c2.133333 194.133333 160 354.133333 354.133333 354.133333v-142.933333c0-196.266667-157.866667-354.133333-354.133333-354.133333zM516.266667 202.666667c23.466667 0 44.8 2.133333 66.133333 6.4l25.6-164.266667c0-2.133333 0-2.133333-2.133333-4.266667s-2.133333 0-4.266667 0l-14.933333 12.8c-8.533333 8.533333-21.333333 8.533333-27.733334 0l-27.733333-27.733333c-6.4-2.133333-12.8-4.266667-19.2-4.266667-6.4 0-12.8 2.133333-19.2 8.533334l-27.733333 27.733333c-8.533333 8.533333-21.333333 8.533333-27.733334 0l-14.933333-14.933333s-2.133333-2.133333-4.266667 0c-2.133333 0-2.133333 2.133333-2.133333 4.266666l25.6 164.266667c23.466667-6.4 49.066667-8.533333 74.666667-8.533333zM514.133333 968.533333c-132.266667 0-245.333333-91.733333-275.2-213.333333-10.666667 2.133333-23.466667 4.266667-36.266666 6.4C236.8 898.133333 362.666667 1002.666667 514.133333 1002.666667s277.333333-104.533333 311.466667-243.2c-12.8-2.133333-23.466667-4.266667-36.266667-6.4-32 123.733333-142.933333 215.466667-275.2 215.466666z" />
 </svg>