<svg viewbox="0 0 1024 1024" version="1.1" xmlns="http://www.w3.org/2000/svg" >
 <path d="M512.32 256c17.664 0 32-14.336 32-32L544.32 96c0-17.664-14.336-32-32-32s-32 14.336-32 32l0 128C480.32 241.664 494.656 256 512.32 256zM544.32 832c-17.664 0-32 14.304-32 32l0 64c0 17.696 14.336 32 32 32 17.696 0 32-14.304 32-32l0-64C576.32 846.304 561.984 832 544.32 832zM740.992 324.672c8.192 0 16.384-3.136 22.624-9.376l83.072-83.072c12.512-12.512 12.512-32.736 0-45.248s-32.736-12.512-45.248 0l-83.072 83.072c-12.512 12.512-12.512 32.736 0 45.248C724.64 321.568 732.8 324.672 740.992 324.672zM759.744 715.744c-12.512-12.512-32.736-12.512-45.248 0s-12.512 32.736 0 45.248l94.912 94.88c6.24 6.24 14.432 9.376 22.624 9.376s16.384-3.136 22.624-9.376c12.512-12.512 12.512-32.736 0-45.248L759.744 715.744zM298.496 344.992c6.24 6.24 14.432 9.376 22.624 9.376s16.384-3.136 22.624-9.376c12.512-12.512 12.512-32.736 0-45.248L247.264 203.264c-12.512-12.512-32.736-12.512-45.248 0s-12.512 32.736 0 45.248L298.496 344.992zM928.32 480l-128 0c-17.696 0-32 14.336-32 32s14.304 32 32 32l128 0c17.696 0 32-14.336 32-32S945.984 480 928.32 480zM96.32 512l64 0c17.664 0 32-14.336 32-32s-14.336-32-32-32l-64 0c-17.664 0-32 14.336-32 32S78.656 512 96.32 512zM640.32 352l-178.752 0c-8.352 0-16.384 3.264-22.368 9.12L76.576 715.616c-12.64 12.352-12.864 32.608-0.512 45.248 12.352 12.64 32.64 12.896 45.248 0.512L474.624 416l133.696 0 0 133.856L265.92 905.76c-12.256 12.736-11.872 32.992 0.864 45.248 6.208 5.984 14.208 8.928 22.176 8.928 8.384 0 16.768-3.296 23.072-9.824L663.36 584.928c5.728-5.984 8.928-13.92 8.928-22.176L672.288 384C672.32 366.336 657.984 352 640.32 352z" />
 </svg>