<svg viewbox="0 0 1024 1024" version="1.1" xmlns="http://www.w3.org/2000/svg" >
 <path d="M770.688 424.928 388 424.928l0 367.744c0 83.84 42.112 136.32 132.96 136.32L520.96 928.96l379.616 0L900.576 555.104C900.608 473.568 863.552 424.928 770.688 424.928zM825.504 590.048l0 50.24-145.312 0 0-140.448 53.216 0C801.472 499.872 825.504 500.096 825.504 590.048zM608.384 499.872l0 140.448-145.568 0c-0.064-68.704-0.16-139.552-0.288-140.448L608.384 499.872zM462.912 768.544c0 0 0-23.392-0.032-56.48l145.504 0 0 145.376-43.808 0C496 857.44 462.912 849.632 462.912 768.544zM825.504 857.44l-145.312 0 0-145.376 145.312 0 0 143.84C825.504 856.448 825.536 856.928 825.504 857.44L825.504 857.44zM122.624 130.496l0 78.24C198.304 210.56 246.016 246.048 257.184 309.664L258.752 318.08l-136.128 81.216 0 81.216c0 0 99.456-61.152 137.216-81.344l0 130.72 0.064 14.656L259.84 531.04l-137.216 81.92 0 81.216c0 0 99.968-61.44 137.504-81.568l0 5.824 0 42.208c0 179.296-137.504 190.112-137.504 190.112l0 79.744c57.088-1.632 215.168-26.528 215.168-277.632L337.792 330.752C331.36 201.984 255.968 132.768 122.624 130.496zM821.344 217.632 821.344 130.496 745.952 130.496 745.952 217.632 543.552 217.632 543.552 130.496 468.256 130.496 468.256 217.632 388 217.632 388 295.488 468.256 295.488 468.256 367.552 543.552 367.552 543.552 295.488 745.952 295.488 745.952 367.552 821.344 367.552 821.344 295.488 901.376 295.488 901.376 217.632Z" />
 </svg>