<svg viewbox="0 0 1024 1024" version="1.1" xmlns="http://www.w3.org/2000/svg" >
 <path d="M896 170.666667H128c-36.266667 0-64 27.733333-64 64v554.666666c0 36.266667 27.733333 64 64 64h768c36.266667 0 64-27.733333 64-64V234.666667c0-34.133333-27.733333-64-64-64zM170.666667 298.666667c0-12.8 8.533333-21.333333 21.333333-21.333334h256c12.8 0 21.333333 8.533333 21.333333 21.333334v211.2c0 12.8-8.533333 21.333333-21.333333 21.333333H192c-12.8 0-21.333333-8.533333-21.333333-21.333333V298.666667z m661.333333 426.666666H192c-12.8 0-21.333333-8.533333-21.333333-21.333333s8.533333-21.333333 21.333333-21.333333h640c12.8 0 21.333333 8.533333 21.333333 21.333333s-8.533333 21.333333-21.333333 21.333333zM533.333333 445.866667c0-12.8 8.533333-21.333333 21.333334-21.333334h128c12.8 0 21.333333 8.533333 21.333333 21.333334s-8.533333 21.333333-21.333333 21.333333h-128c-10.666667 0-21.333333-8.533333-21.333334-21.333333z m298.666667-106.666667H554.666667c-12.8 0-21.333333-8.533333-21.333334-21.333333s8.533333-21.333333 21.333334-21.333334h277.333333c12.8 0 21.333333 8.533333 21.333333 21.333334s-8.533333 21.333333-21.333333 21.333333z" />
 </svg>