<svg viewbox="0 0 1024 1024" version="1.1" xmlns="http://www.w3.org/2000/svg" >
 <path d="M512 64C265.6 64 64 265.6 64 512s201.6 448 448 448 448-201.6 448-448S758.4 64 512 64zM300.8 425.6l128-96c12.8-9.6 35.2-6.4 44.8 6.4 9.6 12.8 6.4 35.2-6.4 44.8L416 419.2h288c19.2 0 32 12.8 32 32s-12.8 32-32 32H320c-12.8 0-25.6-9.6-28.8-22.4s0-25.6 9.6-35.2z m422.4 179.2l-128 96c-6.4 3.2-12.8 6.4-19.2 6.4-9.6 0-19.2-3.2-25.6-12.8-9.6-12.8-6.4-35.2 6.4-44.8l51.2-38.4h-288c-19.2 0-32-12.8-32-32s12.8-32 32-32h384c12.8 0 25.6 9.6 32 22.4 3.2 12.8-3.2 28.8-12.8 35.2z" />
 </svg>