<svg viewbox="0 0 1024 1024" version="1.1" xmlns="http://www.w3.org/2000/svg" >
 <path d="M383.392 499.04l107.04 0 0-28.064L380.16 470.976l-0.032-10.816L380.128 411.52l98.816 0 0-28.064L252.768 383.456l0 28.064 98.944 0 0 48.544 0 10.88L241.632 470.944l0 28.096 106.816 0c-10.176 42.496-44.48 78.304-107.84 113.504l13.952 24.48c39.04-21.664 87.744-54.016 111.328-103.296 6.144 12.8 14.208 25.088 24.256 36.672 20.096 23.392 48.64 45.248 87.168 66.688l14.016-24.48C427.936 577.376 393.568 541.536 383.392 499.04zM629.952 451.552l28.544 0 0-22.624 60.384 0 0 22.624 28.448 0 0-22.624 27.328 0 0-28.064-27.328 0 0-18.272-28.448 0 0 18.272-60.384 0 0-18.272-28.544 0 0 18.272-26.656 0 0 28.064 26.656 0L629.952 451.552zM574.016 397.6c-15.904-15.2-40.896-14.816-54.272-14.56-1.408 0-2.656 0.032-3.808 0.032l0 28.064c1.248 0 2.72 0 4.224 0 9.248-0.224 26.656-0.512 34.016 6.656 1.152 1.024 4.352 4.224 4.544 13.216 0.064 3.104 0.096 6.368 0.128 9.792l-44.128 25.984 14.496 24.16 29.728-17.472c0 9.92-0.064 20.448-0.096 31.296l-44.128 26.048 14.496 24.032 29.536-17.312c-0.032 8-0.032 16-0.032 23.84 0 6.336-3.904 16.704-8.416 22.4-13.184 16.48-35.648 29.216-35.84 29.248l13.952 24.512c1.152-0.544 27.424-15.52 44.128-36.448 8.608-10.592 14.592-27.008 14.592-39.712 0-15.68 0-32.032 0-48.064 0.128-31.488 0.256-61.216 0-82.592C587.04 416.928 582.496 405.824 574.016 397.6zM603.296 470.176l0 17.376 0 109.312c0 22.912 18.88 41.696 42.208 41.696l86.944 0c23.2 0 42.208-18.784 42.208-41.696l0-126.688L603.296 470.176zM674.752 610.432l-29.248 0c-7.552 0-13.888-6.24-13.888-13.568l0-28.704 43.136 0L674.752 610.432zM674.752 540.16l-43.136 0 0-41.888 43.136 0L674.752 540.16zM746.24 596.864c0 7.328-6.304 13.568-13.824 13.568l-29.28 0 0-42.272 43.104 0L746.24 596.864 746.24 596.864zM746.24 540.16l-43.104 0 0-41.888 43.104 0L746.24 540.16z" />
 </svg>