<svg viewbox="0 0 1024 1024" version="1.1" xmlns="http://www.w3.org/2000/svg" >
 <path d="M778.048 603.616c6.24 6.272 14.464 9.44 22.688 9.44 8.16 0 16.32-3.104 22.56-9.312 12.544-12.448 12.608-32.704 0.128-45.248l-283.392-285.088C534.72 263.2 524.32 256 512 256c-14.016 0-25.568 9.152-29.92 21.696l-250.88 250.432c-12.512 12.48-12.544 32.736-0.032 45.248 6.24 6.272 14.432 9.408 22.656 9.408 8.16 0 16.352-3.136 22.624-9.344L480 370.176 480 928c0 17.696 14.336 32 32 32s32-14.304 32-32L544 368.16 778.048 603.616zM896 160c0-17.664-14.304-32-32-32L160 128C142.336 128 128 142.336 128 160s14.336 32 32 32l704 0C881.696 192 896 177.664 896 160zM817.376 672.32c-79.392 0-144 64.608-144 144s64.608 144 144 144 144-64.608 144-144S896.768 672.32 817.376 672.32zM897.376 816.32c0 11.168-2.336 21.792-6.464 31.456l-104.992-104.992c9.696-4.128 20.32-6.464 31.456-6.464C861.504 736.32 897.376 772.192 897.376 816.32zM737.376 816.32c0-9.408 1.952-18.272 4.896-26.656l101.76 101.76c-8.384 2.976-17.248 4.896-26.656 4.896C773.248 896.32 737.376 860.448 737.376 816.32z" />
 </svg>